<svg width="139" height="38" viewBox="0 0 139 38" fill="none" xmlns="http://www.w3.org/2000/svg">
<path fill-rule="evenodd" clip-rule="evenodd" d="M17.2773 7.91667C15.5423 7.91667 14.1359 9.33444 14.1359 11.0833V14.25H10.9946C9.25972 14.25 7.8533 15.6678 7.8533 17.4167V20.5833C7.8533 22.3323 9.25972 23.75 10.9946 23.75H14.1359V26.9167C14.1359 28.6656 15.5423 30.0833 17.2773 30.0833H20.4186C22.1535 30.0833 23.5599 28.6656 23.5599 26.9167V23.75H26.7012C28.4361 23.75 29.8425 22.3323 29.8425 20.5833V17.4167C29.8425 15.6678 28.4361 14.25 26.7012 14.25H23.5599V11.0833C23.5599 9.33444 22.1535 7.91667 20.4186 7.91667H17.2773ZM17.2773 11.0833H20.4186V15.0417C20.4186 16.3533 21.4734 17.4167 22.7746 17.4167H26.7012V20.5833H22.7746C21.4734 20.5833 20.4186 21.6467 20.4186 22.9583V26.9167H17.2773V22.9583C17.2773 21.6467 16.2224 20.5833 14.9213 20.5833H10.9946V17.4167H14.9213C16.2224 17.4167 17.2773 16.3533 17.2773 15.0417V11.0833Z" fill="white"/>
<path fill-rule="evenodd" clip-rule="evenodd" d="M31.4131 1.58333C34.0156 1.58333 36.1251 3.70998 36.1251 6.33333V31.6667C36.1251 34.2901 34.0156 36.4167 31.4131 36.4167H6.28262C3.68028 36.4167 1.57065 34.2901 1.57065 31.6667V6.33333C1.57065 3.70998 3.68028 1.58333 6.28262 1.58333H31.4131ZM31.4131 4.75C32.2806 4.75 32.9838 5.45889 32.9838 6.33333V31.6667C32.9838 32.5411 32.2806 33.25 31.4131 33.25H6.28262C5.41518 33.25 4.71196 32.5411 4.71196 31.6667V6.33333C4.71196 5.45889 5.41518 4.75 6.28262 4.75H31.4131Z" fill="white"/>
<path d="M44.5049 26.2747C44.4089 26.2747 44.3342 26.2481 44.2809 26.1947C44.2276 26.1414 44.2009 26.0721 44.2009 25.9867V14.7387C44.2009 14.6427 44.2276 14.5627 44.2809 14.4987C44.3449 14.4347 44.4249 14.4027 44.5209 14.4027H48.8569C50.4249 14.4027 51.6196 14.6694 52.4409 15.2027C53.2729 15.7254 53.6889 16.4987 53.6889 17.5227C53.6889 18.1094 53.5289 18.6054 53.2089 19.0107C52.8996 19.4161 52.3609 19.7841 51.5929 20.1147C51.5609 20.1254 51.5449 20.1467 51.5449 20.1787C51.5449 20.2107 51.5609 20.2321 51.5929 20.2427C52.4356 20.5201 53.0436 20.8827 53.4169 21.3307C53.7902 21.7681 53.9769 22.3441 53.9769 23.0587C53.9769 24.1467 53.5662 24.9574 52.7449 25.4907C51.9236 26.0134 50.6969 26.2747 49.0649 26.2747H44.5049ZM48.9849 24.3867C49.6782 24.3867 50.1956 24.2427 50.5369 23.9547C50.8889 23.6667 51.0649 23.2827 51.0649 22.8027C51.0649 22.4614 50.9796 22.1787 50.8089 21.9547C50.6382 21.7201 50.4036 21.5441 50.1049 21.4267C49.8169 21.3094 49.4809 21.2507 49.0969 21.2507H47.3049C47.1022 21.2507 47.0009 21.3414 47.0009 21.5227V24.0827C47.0009 24.2854 47.0756 24.3867 47.2249 24.3867H48.9849ZM49.0969 19.2987C49.3422 19.2987 49.5716 19.2721 49.7849 19.2187C50.0089 19.1654 50.2009 19.0747 50.3609 18.9467C50.5316 18.8187 50.6649 18.6641 50.7609 18.4827C50.8676 18.3014 50.9209 18.0881 50.9209 17.8427C50.9209 17.3414 50.7342 16.9574 50.3609 16.6907C49.9982 16.4241 49.5289 16.2907 48.9529 16.2907H47.3049C47.1022 16.2907 47.0009 16.3814 47.0009 16.5627V19.0107C47.0009 19.2027 47.0756 19.2987 47.2249 19.2987H49.0969ZM59.0274 24.6587C59.3581 24.6587 59.6674 24.5734 59.9554 24.4027C60.2541 24.2214 60.5261 23.9921 60.7714 23.7147V18.1627C60.7714 17.9174 60.9101 17.7947 61.1874 17.7947H62.9154C63.1394 17.7947 63.2514 17.9067 63.2514 18.1307L63.2194 25.9867C63.2194 26.1787 63.1341 26.2747 62.9634 26.2747H61.0594C60.8994 26.2747 60.8194 26.1841 60.8194 26.0027V25.2187C60.8194 25.1547 60.8034 25.1174 60.7714 25.1067C60.7394 25.0854 60.6967 25.1014 60.6434 25.1547C60.1954 25.6134 59.7474 25.9441 59.2994 26.1467C58.8621 26.3387 58.3927 26.4347 57.8914 26.4347C57.4221 26.4347 57.0007 26.3334 56.6274 26.1307C56.2647 25.9281 55.9767 25.6347 55.7634 25.2507C55.5501 24.8561 55.4434 24.3921 55.4434 23.8587V18.1787C55.4434 17.9227 55.5714 17.7947 55.8274 17.7947H57.6034C57.8061 17.7947 57.9074 17.9067 57.9074 18.1307V23.5067C57.9074 23.8587 58.0034 24.1414 58.1954 24.3547C58.3981 24.5574 58.6754 24.6587 59.0274 24.6587ZM70.2242 20.0027C70.0428 19.7681 69.7975 19.5654 69.4882 19.3947C69.1788 19.2241 68.8002 19.1387 68.3522 19.1387C67.9575 19.1387 67.6215 19.2187 67.3442 19.3787C67.0775 19.5281 66.9442 19.7361 66.9442 20.0027C66.9442 20.1414 66.9975 20.2747 67.1042 20.4027C67.2108 20.5201 67.4562 20.6267 67.8402 20.7227L69.6802 21.1707C70.5655 21.3734 71.1948 21.7041 71.5682 22.1627C71.9415 22.6214 72.1282 23.1334 72.1282 23.6987C72.1282 24.2747 71.9628 24.7654 71.6322 25.1707C71.3122 25.5761 70.8642 25.8907 70.2882 26.1147C69.7122 26.3281 69.0508 26.4347 68.3042 26.4347C67.3548 26.4347 66.5495 26.2694 65.8882 25.9387C65.2268 25.5974 64.7628 25.1761 64.4962 24.6747C64.4535 24.6001 64.4322 24.5307 64.4322 24.4667C64.4322 24.3921 64.4642 24.3387 64.5282 24.3067L65.6162 23.7467C65.7228 23.6934 65.8028 23.6721 65.8562 23.6827C65.9202 23.6827 65.9735 23.7094 66.0162 23.7627C66.1548 23.9547 66.3202 24.1361 66.5122 24.3067C66.7042 24.4774 66.9442 24.6161 67.2322 24.7227C67.5202 24.8187 67.8828 24.8614 68.3202 24.8507C68.6188 24.8507 68.8855 24.8187 69.1202 24.7547C69.3655 24.6801 69.5575 24.5787 69.6962 24.4507C69.8348 24.3121 69.9042 24.1521 69.9042 23.9707C69.9042 23.7894 69.8295 23.6347 69.6802 23.5067C69.5308 23.3681 69.2535 23.2507 68.8482 23.1547L67.2002 22.8027C66.4002 22.6214 65.7922 22.3387 65.3762 21.9547C64.9708 21.5601 64.7682 21.0481 64.7682 20.4187C64.7682 19.8747 64.9068 19.3947 65.1842 18.9787C65.4722 18.5627 65.8882 18.2374 66.4322 18.0027C66.9762 17.7574 67.6268 17.6347 68.3842 17.6347C69.1948 17.6347 69.8935 17.7841 70.4802 18.0827C71.0775 18.3814 71.5042 18.7387 71.7602 19.1547C71.8028 19.2187 71.8348 19.2881 71.8562 19.3627C71.8775 19.4267 71.8402 19.4854 71.7442 19.5387L70.5922 20.0987C70.5175 20.1307 70.4482 20.1414 70.3842 20.1307C70.3308 20.1094 70.2775 20.0667 70.2242 20.0027ZM77.3485 17.6347C78.0419 17.6347 78.6285 17.7574 79.1085 18.0027C79.5992 18.2374 79.9992 18.5414 80.3085 18.9147C80.6179 19.2881 80.8365 19.6721 80.9645 20.0667C81.0392 20.2801 80.9752 20.3921 80.7725 20.4027L79.0925 20.5627C78.9752 20.5734 78.8952 20.5147 78.8525 20.3867C78.7565 20.1841 78.6499 19.9974 78.5325 19.8267C78.4152 19.6561 78.2712 19.5174 78.1005 19.4107C77.9299 19.3041 77.7059 19.2507 77.4285 19.2507C77.0659 19.2507 76.7459 19.3521 76.4685 19.5547C76.1912 19.7574 75.9725 20.0667 75.8125 20.4827C75.6632 20.8881 75.5885 21.4054 75.5885 22.0347C75.5885 22.6747 75.6685 23.2027 75.8285 23.6187C75.9885 24.0347 76.2125 24.3441 76.5005 24.5467C76.7992 24.7494 77.1512 24.8507 77.5565 24.8507C78.0259 24.8507 78.3939 24.7281 78.6605 24.4827C78.9379 24.2374 79.1992 23.9067 79.4445 23.4907C79.4765 23.4374 79.5085 23.4054 79.5405 23.3947C79.5725 23.3841 79.6312 23.3894 79.7165 23.4107L80.9005 23.6827C81.0179 23.7147 81.0552 23.8161 81.0125 23.9867C80.9272 24.2214 80.7939 24.4827 80.6125 24.7707C80.4312 25.0587 80.1912 25.3254 79.8925 25.5707C79.6045 25.8161 79.2472 26.0241 78.8205 26.1947C78.4045 26.3547 77.9139 26.4347 77.3485 26.4347C76.5272 26.4347 75.7965 26.2534 75.1565 25.8907C74.5165 25.5174 74.0099 25.0054 73.6365 24.3547C73.2739 23.6934 73.0925 22.9307 73.0925 22.0667C73.0925 21.1921 73.2792 20.4241 73.6525 19.7627C74.0259 19.0907 74.5325 18.5681 75.1725 18.1947C75.8125 17.8214 76.5379 17.6347 77.3485 17.6347ZM86.849 25.4587C86.5184 25.7574 86.145 25.9974 85.729 26.1787C85.3237 26.3494 84.8544 26.4347 84.321 26.4347C83.5104 26.4347 82.8704 26.2161 82.401 25.7787C81.9424 25.3414 81.713 24.7814 81.713 24.0987C81.713 23.5014 81.8997 22.9787 82.273 22.5307C82.6464 22.0827 83.1797 21.7361 83.873 21.4907C84.5664 21.2347 85.393 21.0961 86.353 21.0747L86.913 21.0267C86.977 21.0267 87.0357 21.0107 87.089 20.9787C87.1424 20.9467 87.169 20.8881 87.169 20.8027V20.4667C87.169 20.0614 87.0517 19.7467 86.817 19.5227C86.5824 19.2881 86.2464 19.1707 85.809 19.1707C85.489 19.1707 85.1797 19.2454 84.881 19.3947C84.593 19.5334 84.3477 19.7787 84.145 20.1307C84.113 20.2054 84.0757 20.2534 84.033 20.2747C83.9904 20.2961 83.9104 20.2961 83.793 20.2747L82.193 19.9067C82.129 19.8854 82.081 19.8534 82.049 19.8107C82.0277 19.7574 82.049 19.6507 82.113 19.4907C82.3797 18.8614 82.8384 18.3974 83.489 18.0987C84.1504 17.7894 84.961 17.6347 85.921 17.6347C86.8064 17.6347 87.5104 17.7467 88.033 17.9707C88.5557 18.1947 88.9344 18.5094 89.169 18.9147C89.4037 19.3094 89.521 19.7734 89.521 20.3067V25.9227C89.521 26.0507 89.4997 26.1414 89.457 26.1947C89.4144 26.2481 89.3344 26.2747 89.217 26.2747H87.569C87.4517 26.2747 87.3664 26.2321 87.313 26.1467C87.2704 26.0614 87.2437 25.9547 87.233 25.8267L87.201 25.4747C87.1797 25.2827 87.0624 25.2774 86.849 25.4587ZM87.169 22.4987C87.169 22.3174 87.089 22.2267 86.929 22.2267L86.481 22.2587C86.2037 22.2694 85.9264 22.3121 85.649 22.3867C85.3717 22.4507 85.121 22.5467 84.897 22.6747C84.673 22.7921 84.4864 22.9467 84.337 23.1387C84.1984 23.3201 84.129 23.5334 84.129 23.7787C84.129 24.0987 84.241 24.3547 84.465 24.5467C84.689 24.7281 84.9984 24.8187 85.393 24.8187C85.6597 24.8187 85.8944 24.7761 86.097 24.6907C86.3104 24.6054 86.4917 24.5041 86.641 24.3867C86.801 24.2481 86.929 24.1094 87.025 23.9707C87.121 23.8321 87.169 23.6881 87.169 23.5387V22.4987ZM98.3607 17.2027C98.126 16.9467 97.8327 16.7174 97.4807 16.5147C97.1393 16.3121 96.6487 16.2107 96.0087 16.2107C95.3367 16.2107 94.8353 16.3334 94.5047 16.5787C94.174 16.8134 94.0087 17.1174 94.0087 17.4907C94.0087 17.6187 94.0407 17.7574 94.1047 17.9067C94.1687 18.0561 94.2967 18.2001 94.4887 18.3387C94.6807 18.4774 94.9527 18.6001 95.3047 18.7067L97.8327 19.4267C98.814 19.6934 99.5287 20.1254 99.9767 20.7227C100.425 21.3094 100.649 21.9921 100.649 22.7707C100.649 23.5174 100.457 24.1681 100.073 24.7227C99.6887 25.2667 99.1393 25.6881 98.4247 25.9867C97.71 26.2854 96.862 26.4347 95.8807 26.4347C95.1553 26.4347 94.4727 26.3547 93.8327 26.1947C93.2033 26.0241 92.6433 25.7841 92.1527 25.4747C91.6727 25.1547 91.294 24.7867 91.0167 24.3707C90.9633 24.2641 90.942 24.1787 90.9527 24.1147C90.9633 24.0401 91.0167 23.9654 91.1127 23.8907L92.3447 23.0427C92.4727 22.9681 92.574 22.9361 92.6487 22.9467C92.734 22.9574 92.8087 23.0001 92.8727 23.0747C93.1287 23.3947 93.3793 23.6614 93.6247 23.8747C93.8807 24.0881 94.174 24.2427 94.5047 24.3387C94.8353 24.4347 95.23 24.4827 95.6887 24.4827C96.382 24.4827 96.9367 24.3761 97.3527 24.1627C97.7687 23.9387 97.9767 23.5974 97.9767 23.1387C97.9767 22.9574 97.934 22.7921 97.8487 22.6427C97.7633 22.4827 97.6247 22.3441 97.4327 22.2267C97.2513 22.0987 96.99 21.9814 96.6487 21.8747L94.2327 21.1867C93.6033 21.0054 93.0753 20.7494 92.6487 20.4187C92.222 20.0881 91.8967 19.6987 91.6727 19.2507C91.4593 18.8027 91.3527 18.3334 91.3527 17.8427C91.3527 17.1601 91.5393 16.5467 91.9127 16.0027C92.2967 15.4587 92.83 15.0321 93.5127 14.7227C94.206 14.4027 95.0113 14.2427 95.9287 14.2427C96.5367 14.2427 97.102 14.3121 97.6247 14.4507C98.158 14.5894 98.638 14.7814 99.0647 15.0267C99.4913 15.2721 99.838 15.5707 100.105 15.9227C100.147 15.9761 100.179 16.0401 100.201 16.1147C100.222 16.1787 100.19 16.2481 100.105 16.3227L98.7607 17.3147C98.6967 17.3574 98.638 17.3734 98.5847 17.3627C98.5313 17.3414 98.4567 17.2881 98.3607 17.2027ZM106.693 25.4587C106.362 25.7574 105.989 25.9974 105.573 26.1787C105.167 26.3494 104.698 26.4347 104.165 26.4347C103.354 26.4347 102.714 26.2161 102.245 25.7787C101.786 25.3414 101.557 24.7814 101.557 24.0987C101.557 23.5014 101.743 22.9787 102.117 22.5307C102.49 22.0827 103.023 21.7361 103.717 21.4907C104.41 21.2347 105.237 21.0961 106.197 21.0747L106.757 21.0267C106.821 21.0267 106.879 21.0107 106.933 20.9787C106.986 20.9467 107.013 20.8881 107.013 20.8027V20.4667C107.013 20.0614 106.895 19.7467 106.661 19.5227C106.426 19.2881 106.09 19.1707 105.653 19.1707C105.333 19.1707 105.023 19.2454 104.725 19.3947C104.437 19.5334 104.191 19.7787 103.989 20.1307C103.957 20.2054 103.919 20.2534 103.877 20.2747C103.834 20.2961 103.754 20.2961 103.637 20.2747L102.037 19.9067C101.973 19.8854 101.925 19.8534 101.893 19.8107C101.871 19.7574 101.893 19.6507 101.957 19.4907C102.223 18.8614 102.682 18.3974 103.333 18.0987C103.994 17.7894 104.805 17.6347 105.765 17.6347C106.65 17.6347 107.354 17.7467 107.877 17.9707C108.399 18.1947 108.778 18.5094 109.013 18.9147C109.247 19.3094 109.365 19.7734 109.365 20.3067V25.9227C109.365 26.0507 109.343 26.1414 109.301 26.1947C109.258 26.2481 109.178 26.2747 109.061 26.2747H107.413C107.295 26.2747 107.21 26.2321 107.157 26.1467C107.114 26.0614 107.087 25.9547 107.077 25.8267L107.045 25.4747C107.023 25.2827 106.906 25.2774 106.693 25.4587ZM107.013 22.4987C107.013 22.3174 106.933 22.2267 106.773 22.2267L106.325 22.2587C106.047 22.2694 105.77 22.3121 105.493 22.3867C105.215 22.4507 104.965 22.5467 104.741 22.6747C104.517 22.7921 104.33 22.9467 104.181 23.1387C104.042 23.3201 103.973 23.5334 103.973 23.7787C103.973 24.0987 104.085 24.3547 104.309 24.5467C104.533 24.7281 104.842 24.8187 105.237 24.8187C105.503 24.8187 105.738 24.7761 105.941 24.6907C106.154 24.6054 106.335 24.5041 106.485 24.3867C106.645 24.2481 106.773 24.1094 106.869 23.9707C106.965 23.8321 107.013 23.6881 107.013 23.5387V22.4987ZM114.652 24.6587C114.983 24.6587 115.292 24.5734 115.58 24.4027C115.879 24.2214 116.151 23.9921 116.396 23.7147V18.1627C116.396 17.9174 116.535 17.7947 116.812 17.7947H118.54C118.764 17.7947 118.876 17.9067 118.876 18.1307L118.844 25.9867C118.844 26.1787 118.759 26.2747 118.588 26.2747H116.684C116.524 26.2747 116.444 26.1841 116.444 26.0027V25.2187C116.444 25.1547 116.428 25.1174 116.396 25.1067C116.364 25.0854 116.322 25.1014 116.268 25.1547C115.82 25.6134 115.372 25.9441 114.924 26.1467C114.487 26.3387 114.018 26.4347 113.516 26.4347C113.047 26.4347 112.626 26.3334 112.252 26.1307C111.89 25.9281 111.602 25.6347 111.388 25.2507C111.175 24.8561 111.068 24.3921 111.068 23.8587V18.1787C111.068 17.9227 111.196 17.7947 111.452 17.7947H113.228C113.431 17.7947 113.532 17.9067 113.532 18.1307V23.5067C113.532 23.8587 113.628 24.1414 113.82 24.3547C114.023 24.5574 114.3 24.6587 114.652 24.6587ZM117.18 15.4587C117.255 15.6721 117.175 15.8107 116.94 15.8747L113.244 16.8667C113.127 16.8881 113.042 16.8881 112.988 16.8667C112.935 16.8347 112.892 16.7761 112.86 16.6907L112.668 16.1307C112.615 15.9707 112.647 15.8641 112.764 15.8107L116.556 14.2747C116.684 14.2214 116.775 14.2694 116.828 14.4187L117.18 15.4587ZM126.505 26.2747C126.42 26.2747 126.34 26.2534 126.265 26.2107C126.201 26.1574 126.169 26.0721 126.169 25.9547V25.5067C126.169 25.4321 126.148 25.3894 126.105 25.3787C126.062 25.3681 126.009 25.3894 125.945 25.4427C125.774 25.6027 125.582 25.7627 125.369 25.9227C125.156 26.0721 124.905 26.1947 124.617 26.2907C124.329 26.3867 123.993 26.4347 123.609 26.4347C122.958 26.4347 122.382 26.2747 121.881 25.9547C121.38 25.6347 120.985 25.1547 120.697 24.5147C120.409 23.8641 120.265 23.0587 120.265 22.0987C120.265 21.2027 120.42 20.4241 120.729 19.7627C121.049 19.0907 121.476 18.5681 122.009 18.1947C122.542 17.8214 123.129 17.6347 123.769 17.6347C124.196 17.6347 124.574 17.7041 124.905 17.8427C125.236 17.9814 125.556 18.1947 125.865 18.4827C125.95 18.5467 126.014 18.5734 126.057 18.5627C126.11 18.5414 126.137 18.4721 126.137 18.3547V14.6907C126.137 14.4987 126.222 14.4027 126.393 14.4027H128.345C128.516 14.4027 128.601 14.5041 128.601 14.7067V25.9387C128.601 26.0561 128.574 26.1414 128.521 26.1947C128.468 26.2481 128.372 26.2747 128.233 26.2747H126.505ZM126.137 20.0027C125.902 19.7467 125.662 19.5547 125.417 19.4267C125.182 19.2881 124.91 19.2187 124.601 19.2187C124.249 19.2187 123.929 19.3201 123.641 19.5227C123.364 19.7147 123.145 20.0187 122.985 20.4347C122.836 20.8507 122.761 21.3947 122.761 22.0667C122.761 22.7494 122.836 23.2987 122.985 23.7147C123.145 24.1307 123.358 24.4347 123.625 24.6267C123.902 24.8081 124.217 24.8987 124.569 24.8987C124.868 24.8987 125.134 24.8294 125.369 24.6907C125.604 24.5521 125.79 24.3761 125.929 24.1627C126.068 23.9494 126.137 23.7254 126.137 23.4907V20.0027ZM132.527 22.7547C132.527 23.1494 132.618 23.5014 132.799 23.8107C132.991 24.1094 133.242 24.3441 133.551 24.5147C133.871 24.6747 134.228 24.7547 134.623 24.7547C135.007 24.7547 135.359 24.6747 135.679 24.5147C136.01 24.3441 136.34 24.0667 136.671 23.6827C136.714 23.6401 136.751 23.6187 136.783 23.6187C136.815 23.6081 136.874 23.6241 136.959 23.6667L138.111 24.1467C138.26 24.2107 138.276 24.3174 138.159 24.4667C137.818 24.9574 137.46 25.3467 137.087 25.6347C136.714 25.9227 136.298 26.1307 135.839 26.2587C135.391 26.3761 134.884 26.4347 134.319 26.4347C133.487 26.4347 132.746 26.2534 132.095 25.8907C131.444 25.5281 130.927 25.0267 130.543 24.3867C130.17 23.7361 129.983 22.9947 129.983 22.1627C129.983 21.2454 130.175 20.4507 130.559 19.7787C130.954 19.0961 131.476 18.5681 132.127 18.1947C132.778 17.8214 133.492 17.6347 134.271 17.6347C135.092 17.6347 135.812 17.8161 136.431 18.1787C137.05 18.5307 137.535 19.0374 137.887 19.6987C138.25 20.3601 138.431 21.1654 138.431 22.1147C138.431 22.2321 138.42 22.3227 138.399 22.3867C138.378 22.4507 138.298 22.4881 138.159 22.4987H132.719C132.655 22.4987 132.607 22.5201 132.575 22.5627C132.543 22.6054 132.527 22.6694 132.527 22.7547ZM135.743 21.1547C135.86 21.1547 135.935 21.1441 135.967 21.1227C135.999 21.0907 136.015 21.0267 136.015 20.9307C136.015 20.6641 135.951 20.3921 135.823 20.1147C135.706 19.8374 135.524 19.6081 135.279 19.4267C135.044 19.2347 134.74 19.1387 134.367 19.1387C134.015 19.1387 133.7 19.2241 133.423 19.3947C133.146 19.5654 132.932 19.8054 132.783 20.1147C132.634 20.4134 132.559 20.7547 132.559 21.1387L135.743 21.1547Z" fill="white"/>
</svg>
